<svg id="elevate-line" data-name="elevate-line" xmlns="http://www.w3.org/2000/svg" viewBox="0 0 622.01 608.29">
	<defs>
		<style>
			.cls-1{fill:none;}
			.cls-1,.cls-2{stroke:#b3b3b3;stroke-miterlimit:10;}
			.cls-2,.cls-3{fill:#fff;}
			.elevate-line-text{font-size:12px;fill:#54a5d9;font-family:Futura;}
		</style>
	</defs>
	<title>elevate-line</title>
	<line class="cls-1" x1="103.22" y1="385.08" x2="309.68" y2="385.08"/>
	<line class="cls-1" x1="347.69" y1="196.38" x2="554.15" y2="196.38"/>
	<line class="cls-2" x1="556.79" y1="196.85" x2="593.88" y2="8.62"/>
	<circle class="cls-3" cx="556.79" cy="196.85" r="8.62"/>
	<circle class="cls-3" cx="593.88" cy="8.62" r="8.62"/>
	<line class="cls-2" x1="309.68" y1="384.6" x2="346.77" y2="196.38"/>
	<circle class="cls-3" cx="309.68" cy="384.6" r="8.62"/>
	<circle class="cls-3" cx="346.77" cy="196.38" r="8.62"/>
	<line class="cls-2" x1="66.13" y1="573.3" x2="103.22" y2="385.08"/>
	<circle class="cls-3" cx="66.13" cy="573.3" r="8.62"/>
	<circle class="cls-3" cx="103.22" cy="385.08" r="8.62"/>
	<text class="elevate-line-text" transform="translate(29.49 358.17)">
		PRE-DRAFT PRE
		<tspan x="84.01" y="0">P</tspan>
		<tspan x="89.83" y="0">AR</tspan>
		<tspan x="105.94" y="0">A</tspan>
		<tspan x="114.33" y="0">TION</tspan>
	</text>
	<text class="elevate-line-text" transform="translate(0 608.29)">
		P
		<tspan x="6.48" y="0">L</tspan>
		<tspan x="12.3" y="0">A</tspan>
		<tspan x="20.4" y="0">YER DEVE</tspan>
		<tspan x="75.71" y="0">L</tspan>
		<tspan x="80.67" y="0">OPMENT</tspan>
	</text>
	<text class="elevate-line-text" transform="translate(281.55 169.26)">
		MAXIMIZE EARNI
		<tspan x="101.01" y="0">N</tspan>
		<tspan x="111.23" y="0">GS</tspan>
	</text>
	<text class="elevate-line-text" transform="translate(242.02 418.52)">
		BRAND MA
		<tspan x="66.18" y="0">N</tspan>
		<tspan x="76.38" y="0">A</tspan>
		<tspan x="84.86" y="0">GEMENT</tspan>
	</text>
	<text class="elevate-line-text" transform="translate(496.93 231.23)">
		BUILD 
		<tspan x="37.24" y="0">P</tspan>
		<tspan x="43.05" y="0">A</tspan>
		<tspan x="51.94" y="0">R</tspan>
		<tspan x="59.06" y="0">TNERSHIPS</tspan>
	</text>
	<text class="elevate-line-text" transform="translate(452.46 11.63)">
		LIFE
		<tspan x="21.74" y="0">S</tspan>
		<tspan x="28.91" y="0">T</tspan>
		<tspan x="35.29" y="0">YLE SE</tspan>
		<tspan x="72.08" y="0">R</tspan>
		<tspan x="78.98" y="0">VICES</tspan>
	</text>
</svg>