<svg id="White" xmlns="http://www.w3.org/2000/svg" viewBox="0 0 266.89 266.89"><defs><style>.cls-1{fill:#fff;}</style></defs><title>fb</title><path id="White-2" data-name="White" class="cls-1" d="M886.72,90.55H649.28a14.73,14.73,0,0,0-14.73,14.73V342.72a14.73,14.73,0,0,0,14.73,14.73H777.11V254.09H742.33V213.81h34.78V184.11c0-34.47,21.05-53.24,51.81-53.24A285.37,285.37,0,0,1,860,132.45v36H838.67c-16.72,0-20,7.95-20,19.61v25.72h39.89l-5.19,40.28H818.71V357.45h68a14.73,14.73,0,0,0,14.73-14.73V105.28A14.73,14.73,0,0,0,886.72,90.55Z" transform="translate(-634.55 -90.55)"/></svg>