<svg id="Layer_1" data-name="Layer 1" xmlns="http://www.w3.org/2000/svg" xmlns:xlink="http://www.w3.org/1999/xlink" viewBox="0 0 745.49 672.66"><defs><style>.cls-1{fill:none;}.cls-2,.cls-5{fill:#03354e;}.cls-3{fill:#fff;}.cls-4{clip-path:url(#clip-path);}.cls-5{font-size:93.92px;font-weight:700;}.cls-5,.cls-6{font-family:Futura;}.cls-6{font-size:55.15px;fill:#bcbec0;}.cls-7{fill:#00afec;}</style><clipPath id="clip-path" transform="translate(77.57)"><circle class="cls-1" cx="293.06" cy="293.06" r="251.49"/></clipPath></defs><title>ol2</title><circle class="cls-2" cx="370.63" cy="293.06" r="293.06"/><circle class="cls-3" cx="372.98" cy="293.06" r="276.68"/><circle class="cls-2" cx="370.63" cy="293.06" r="266.61"/><circle class="cls-3" cx="370.63" cy="293.06" r="259.71"/><g class="cls-4"><path class="cls-2" d="M-18,329c10.62-2.93,21.17-6.19,31.64-9.62,8.68-2.85,17.31-5.88,25.8-9.26,7.62-3,14.75-6.82,22.1-10.42,16.79-8.24,34.74-14.22,52.49-20,12.53-4.09,25.93-7.22,37.43-13.73,6.89-3.9,12.61-10.47,18.36-15.8,6.19-5.73,12.46-12.05,19.82-16.29a175.86,175.86,0,0,0,14.92-9.49c3.28-2.35,6.19-5.34,9.77-7.22,7.22-3.79,15.21-6.14,22.82-9a40.78,40.78,0,0,0,6.72-3.5c4.4-2.65,9.48-3.65,14.49-4.43,10.56-1.66,21.13-.57,31.75-0.85a154.71,154.71,0,0,1,15.8-.07c5.38,0.41,9.58,3.54,14.36,5.68,8.46,3.78,17.87,2,26.85,1.53a91.6,91.6,0,0,1,11.85-.22c6.07,0.45,12.14,5.17,15.66,9.87,2,2.62,3.38,5.13,6.12,7,3.72,2.52,7.57,4.86,11.37,7.25,4,2.53,7.76,4.64,10.63,8.53,2.74,3.72,4.92,7.84,8.32,11,3,2.8,7.58,4.51,11.07,6.63,4.12,2.5,8.43,4.94,13.28,5.58,9.12,1.2,18.15,6.41,25.73,11.44,6.83,4.53,13.37,9.48,20.28,13.9,5.24,3.35,11.4,5.4,17,8s11.09,5.19,16.5,8.06c13.62,7.23,27.68,14.44,40.17,23.52,9.73,7.09,18.77,15.06,29.23,21.13,5.84,3.39,12.56,4.32,18.83,6.68,0.69,0.26,3.29,1.79,1.55.44l0.78,0.6,4.17,3.23,20.87,16.18,1-2.94-97.1,6.91L373.68,390.8l-43,3.06-2.73.2c1.16-.08-0.84-0.05-1.3-0.07l-16.7-.55-153.17-5.08c-28.27-.94-56.55-1.64-84.79-3.24l-79.8-4.49L-41,378.78c-5.84-.32-9.85-0.27-14.76-2.35-6.27-2.65-12.45-5.52-18.62-8.38l0.41,2.9,56.41-42.17c2.09-1.56-1.16-4.23-3-2.87L-77,368.08a1.74,1.74,0,0,0,.41,2.9q6.81,3.17,13.66,6.23c3.45,1.54,8,4.52,11.87,4.68,6.05,0.25,12.1.65,18.15,1Q7.07,385.08,47,387.35c28.1,1.59,56.13,2.87,84.26,3.8l158.6,5.26,38.38,1.27c8.37,0.28,17.12-1.18,25.46-1.77l151-10.75,123.63-8.8,4.23-.3a1.67,1.67,0,0,0,1-2.94l-24.76-19.2c-5-3.84-11.93-4.63-17.77-6.42-7-2.14-13.54-7.93-19.29-12.19-5.41-4-10.56-8.37-16-12.26-8.12-5.76-17-10.58-25.7-15.4-12.91-7.15-26-13.7-39.51-19.62-13.36-5.85-24.09-16.37-37.07-23A77.22,77.22,0,0,0,440,259.45c-2-.59-4.05-0.69-6.08-1.14-3-.66-5.82-2.41-8.46-3.95-3.84-2.23-8.83-4.28-12.06-7.31-3.52-3.31-5.52-8.07-8.63-11.74-5.39-6.37-14.34-10.14-21.25-14.67-3.16-2.07-4.55-5.52-7-8.27a35.28,35.28,0,0,0-11.88-8.4c-7.45-3.23-17.87-1.09-25.66-.63-4.6.27-9.47,0.95-14-.32-5.11-1.44-9.39-5-14.47-6.55-8.72-2.72-19.2-.46-28.19-0.71-10.94-.31-22.18-0.52-32.83,2.46-6.18,1.73-11.32,5.5-17.32,7.68-7.54,2.74-15.48,5.17-22.41,9.3-3.26,1.95-6.12,4.85-9.21,7.08-4.86,3.49-10,6.37-15.13,9.49-7.47,4.58-13.89,11.2-20.27,17.13-5.9,5.48-11.67,11.74-18.92,15.42-7.63,3.86-16,6.07-24.11,8.68-10.17,3.27-20.32,6.65-30.39,10.23-8,2.86-16,5.91-23.82,9.28-7,3-13.56,6.72-20.42,9.94C26,312.5,2.69,319.37-20.11,325.66-22.73,326.38-20.18,329.62-18,329Z" transform="translate(77.57)"/><path class="cls-2" d="M254.58,206.6s-11.6,9-14.76,13.18-4.74,9-4.74,11.07,2.11,2.63,7.38.53S256.68,225,256.68,225l5.8-4.22s-5.27,7.38-10,11.6-9,9-10,11.07-3.16,8.43-4.75,9-5.27-6.33-11.6-1.05-1.58,5.8-7.91,12.65-7.38,13.18-12.13,13.71-15.82,3.16-23.2,6.85-8.44,10-12.13,12.12-21.09,3.17-23.72,6.86-16.87,11.07-27.94,12.12-25.83,7.38-27.42,9-33.74,16.87-33.74,16.87-7.91,4.22-14.76,4.22-10-24.25-13.71-23.2,9-2.64,12.65,1.06c7.38,7.38,24.78-1.58,30.05-3.17s9.49-1.05,12.13-4.21,5.27-6.86,10-8.44S108,301.49,108,301.49s8.44-1.58,11.07-1.58,12.13-4.22,14.23-5.27,4.22-6.33-3.16-4.75-10-4.22-4.22-5.27,14.24-4.22,15.29-6.85,6.85-6.85,10-9,10.55,2.11,7.91,5.27,9.49-2.64,13.71-6.33,22.67-20.56,24.78-23.72-2.63-5.8-6.85-4.75-8.49-3.46-1.64-7.15,18.51-10.24,22.72-10.24,12.65-3.17,16.87-5.8,13.18-9.49,13.18-9.49,5.27-4.22,10-5.27,8.94-1.72,8.94-1.72Z" transform="translate(77.57)"/><path class="cls-2" d="M371,210.8s-3.56,3.7-8.31,4.23-10.54,3.69-11.07,6.33-3.16,7.38,0,9.49,5.27,4.75,5.27,6.33,8.44,6.33,11.6,7.91,2.11,2.11,8.44,4.22,10,4.22,11.6,4.75,0.53-3.16,2.64-4.22,4.22,1.05,6.32,2.11a43.15,43.15,0,0,0,5.8,2.11s3.16-3.16,7.91-.53,5.8,6.33,9,7.91-11.6,1.05-11.6,1.05-0.53,2.11,3.69,4.22,7.38,3.69,7.91,7.91a17.39,17.39,0,0,0,3.69,7.91s-3.16,2.64-4.74,3.69-5.8,3.16-2.64,4.22,10.54,3.16,15.29,5.8,6.33,5.27,6.86,7.91,2.64,11.07,7.91,15.82,12.65,11.6,13.71,13.18,2.11-3.69-1.05-7.91-3.69-8.43-6.86-11.07-4.22-6.33-5.8-10,5.27-5.8,9-2.11,6.85,7.91,10,8.44S479.17,312,479.17,312s-3.16-2.64-7.38-6.85-4.75-6.32-7.91-9-13.18-7.38-16.87-9-10.55-4.22-14.24-7.91-2.64-6.33,1.58-5.27,14.77,4.75,20,7.91,4.22,7.91,16.87,14.24,17.4,12.12,19.51,13.18,7.47,1.43,10.54,2.11,40.12,27.11,26.12,25.17,32.4,20.7,32.4,20.7,20-24.25-31.63-48.5c-13.58-6.38-34.67-5.48-35.85-6.33s-0.53-5.27-3.69-8.44a27.3,27.3,0,0,0-9-5.8c-1.58-.53-23.2-11.6-24.78-13.71s1.06-5.27-7.38-7.38-14.23-6.33-15.82-6.86-9-5.8-13.18-7.38-10-2.11-13.71-3.69-2.11-2.11-5.27-6.33-7.91-10.54-10-12.13-1.71-3.43-4.35-5a27.36,27.36,0,0,1-6.91-6.64C376.18,216.57,371,210.8,371,210.8Z" transform="translate(77.57)"/><path class="cls-2" d="M302.55,230.85s-2.11-7.38.53-5.27,5.28,6.85,5.8,8.44,6.32,12.65,8.43,14.23,4.22,3.16,4.74,4.74-2.63,1.05-.52,4.22,6.32,6.33,6.85,7.91,2.11,6.33,6.85,9,6.33,9,6.33,9l2.64,4.74a60.22,60.22,0,0,0-5.8-3.69c-2.11-1.05-7.38-8.43-10-8.43s-2.64,1.05-2.64,3.16a21.48,21.48,0,0,1-1.05,5.27s-0.53-5.8-3.69-9.49-4.74-2.11-5.8-5.8,0.53-4.74-.53-7.91-1.58-4.74-4.22-6.33-5.27-5.8-5.27-5.8,0.53,9.49-1.05,11.6-3.16-2.11-3.16-4.75-0.53-7.91-.53-10,3.69-1.58,3.16-4.74S302.55,230.85,302.55,230.85Z" transform="translate(77.57)"/><path class="cls-2" d="M332.6,232.43s6.33,2.11,7.38,6.85a83.18,83.18,0,0,1,1.58,14.24,29.52,29.52,0,0,0,3.16,11.6,64.62,64.62,0,0,0,5.27,8.44s-0.53-2.63-1.06-7.91,3.69-8.44,4.22-5.27,0,10,2.64,12.13,5.8,7.38,6.32,9S370,292,373.2,292.53s7.91,4.74,9.49,6.85,2.63,9,2.63,11.07,1.06,3.69,3.16,5.8,4.74,0,4.74-2.11,0.53-10.54,4.22-7.38,2.11,2.11,9.49,5.27,6.85,2.11,11.6,6.85,10,9.49,10,9.49,3.69,4.22,1.05,5.28-4.22,3.16-5.8,4.74-2.11,5.27-3.69,5.79-12.65-3.16-13.71-4.74-5.27-1.05-7.38,0-7.91-1.58-9-3.69a14.68,14.68,0,0,0-6.85-7.38c-4.22-2.11-11.6-4.74-13.18-4.74s-3.17,1.06-.53,4.22,2.11,5.8-1.05,6.85-8.44,4.75-10,6.86S350,357.91,350,359.49s-2.64,6.33-2.64,6.33-2.63,0-10-4.22-13.18-9.49-15.82-9.49-19-2.11-22.67-1-14.23,8.43-21.61,7.91-5.27-4.22-7.38-6.86-6.33-4.21-11.07-3.69-38,7.38-41.65,4.74-1.05,1.06-7.91-7.91-11.07-14.76-17.4-15.29-12.65,2.11-8.44,3.7,4.75,9,3.16,9.49-9,3.69-12.65-1.06-11.07-13.18-12.13-9,4.22,11.07.53,14.76S156,360,148.6,354.75s-9-10-11.6-10.55-11.6,1.06-13.18,2.11S112.75,360,108.53,360s-13.18,5.28-15.82.53,5.27-6.86,7.91-7.91,9-4.75,9.49-6.86,1.06-4.74-.53-6.33-3.16-1.05-5.8,1.58-2.63,4.74-6.85,4.74-5.8-3.16-9.49-3.69S79,343.68,76.9,345.78s-20.56,4.75-25.83,5.28,2.63-6.33,4.22-7.38S72.16,330,72.16,330l-6.85.53s-5.8,5.27-20.56,8.43-19.51.53-24.78,5.27-9.49,8.44-12.13,9.49-6.85,10-6.85,10l-6.33,14.23S-8,394.82-2.71,395.87,65.3,663.18,79,662.12s310,10.54,310,10.54S544.55,563,547.18,563s-14.24-135-12.65-135,8.43-30.05,20-31.63,94.9-9,96.48-9,16.88-5.27,16.88-5.27-40.6-17.93-49-20.57-11.07-2.11-19-2.11-9.49,2.64-14.76-1.58-2.11-3.16-1.58-6.85-10.54-4.75-13.71-4.22-6.85,2.64-11.6,0-7.91-6.85-16.35-8.43-8.43-1.06-12.12-1.58-6.85,0-13.18-2.64-11.6-6.33-13.71-7.38-9.49-.53-7.91,3.16,2.64,6.86.53,9.49-5.28,3.69-1.06,7.38,6.86,5.27,7.38,6.85,1.06,5.8-1.58,7.38-20.56,9-23.72,5.8-11.6-5.8-15.29-5.8-10-1.06-10-3.69-10-6.33-6.33-9.49,6.85-1.06,10,2.11,7.91,2.64,6.33-.53-7.38-7.38-9-9.49-4.22-12.66-8.44-14.77-11.6-9.49-11.6-9.49-13.18-5.8-14.76-5.8-7.91-1.58-9.49-2.64-7.38,1.06-7.38-2.11a6.83,6.83,0,0,0-6.33-6.85c-4.22-.53-6.33-4.22-3.69-4.22s3.69-3.69,1.05-5.27-8.43-3.16-8.43-3.16-11.6-4.75-13.71-11.07,1.06-10-1.58-11.6-7.91-4.22-7.91-5.8,0.53-3.69,2.11-3.69,2.11-5.8-1.58-5.27-3.16,3.69-5.8,2.11-5.27-7.38-5.27-7.38-9.49-11.07-12.65-12.13A3.17,3.17,0,0,0,332.6,232.43Z" transform="translate(77.57)"/><path class="cls-2" d="M288.84,232.43c-2.64,2.64-2.64,5.27-3.16,7.38s0.53,6.33-1.58,6.85-2.11,2.11-4.22,2.11-5.27-5.27-5.27-5.27-3.16-1.05-2.64-5.8-3.69,0-5.27-1.05-5.27-7.38-3.69-9,4.22-3.16,5.8-3.16,5.8,3.16,5.8,3.16,4.22-1.06,4.74,1.05,1.06,6.33,1.06,6.33a2.13,2.13,0,0,0,2.64-1.58c0.53-2.11,3.16-5.27,3.16-5.27s-1.58-3.69.53-4.22,5.8,0,4.22,2.11S288.84,232.43,288.84,232.43Z" transform="translate(77.57)"/><path class="cls-2" d="M285.68,215s-1.05,3.69,2.64,4.22,4.75-3.69,3.16-4.22S287.79,211.87,285.68,215Z" transform="translate(77.57)"/><path class="cls-2" d="M288.84,285.68s1.58-6.85,1.58-9,0-5.8-.52-7.38,0-5.8-1.58-6.85-5.8-5.27-3.69-6.85,5.8-1.05,6.33,1.05,4.75,9.49,4.75,11.07,0.53,7.38,1.58,9,1.05,6.85,3.16,9,7.91,4.22,7.91,4.22,4.74,4.22,1.58,5.27a15.5,15.5,0,0,0-7.91,7.38c-1.05,2.64-3.16,6.85-4.22,5.27s-0.52-5.27,1.58-7.91,8.43-6.32,5.27-7.38-6.33.53-7.91-2.11-0.53-7.38-3.69-3.69S289.9,288.84,288.84,285.68Z" transform="translate(77.57)"/><path class="cls-2" d="M267.76,317.31s0,6.86-4.75,4.22-7.38-11.07-11.07-9.49-4.75,5.27-9.49,4.22-13.18-3.69-10-6.33,7.91,1.58,7.91-3.16-4.22-7.38-1.05-10.55,3.69,1.58,8.43-1.06,7.38-6.32,5.27-7.38-9,1.58-9-2.64-2.64-9,0-13.18,1.05-10,.53-12.13-1.58-8.44,1.05-8.44,1.58,4.75,4.22,5.27,5.8,4.22,4.75,7.38-4.22,5.27-3.69,7.38,7.38,9.49,7.38,9.49a5.14,5.14,0,0,1,.53,4.75c-1.06,2.64-3.69,3.69-2.11,6.33s6.32,6.86,5.8,10-3.16,7.38-.53,9.49A54.72,54.72,0,0,1,267.76,317.31Z" transform="translate(77.57)"/><path class="cls-2" d="M265.12,203.43s-4.22,4.22-7.91,7.38-7.91,4.74-5.27,6.85,14.23,0,14.76-2.64-5.27,0-4.74-2.64S267.23,205.54,265.12,203.43Z" transform="translate(77.57)"/><path class="cls-2" d="M238.76,260.37s3.16,5.8,1.58,9-3.69,4.22-3.16,7.91,0.53,12.13-4.75,11.07-3.69-5.27-3.16-7.38,1.58-4.74-.53-4.74-5.27,2.11-6.85,1.58,0.53-5.8,2.63-6.85,2.64,1.05,4.75-2.64,3.16-10.54,4.75-12.12,5.27-2.64,4.22-.53S238.76,260.37,238.76,260.37Z" transform="translate(77.57)"/><path class="cls-2" d="M200.8,286.73c3.16,2.64,2.11,4.74-.53,6.85s-4.75,2.64-2.64,4.74,5.8,5.8,7.91,6.85,4.22,2.63,3.16,4.22-2.11,1.58-4.22,5.8c0,0-1.05,6.85-6.33,6.85s-11.6-2.64-13.71-1.58-9,3.16-9,3.16a21.27,21.27,0,0,1,3.16-5.79c2.11-2.64,3.69-5.8,0-5.8a21.78,21.78,0,0,0-8.44,1.58c-3.16,1.06-12.66,8.43-13.71,5.27s-1.05-6.33,0-7.91,5.27-6.32,8.44-6.32,11.6-.53,14.23-3.69a18.61,18.61,0,0,1,6.85-4.74,4.19,4.19,0,0,1,.53-4.22c1.58-2.11,4.22-5.8,6.33-5.8S197.63,284.1,200.8,286.73Z" transform="translate(77.57)"/><path class="cls-2" d="M344.73,295.7s3.69,5.27,0,5.8-10-2.11-7.38,1.06,6.85,12.65,5.27,15.82-4.74,4.22-4.74.52-0.52-8.43-2.64-9.49-4.22-2.11-5.8-2.11-9.49.53-7.91-1.58,5.27-4.22,7.38-4.22,4.74-3.16,4.74-3.16a4,4,0,0,1,3.16-1.58A73.29,73.29,0,0,0,344.73,295.7Z" transform="translate(77.57)"/><path class="cls-2" d="M117.52,278.34s-0.55,8.92-9,10-11.07,4.22-14.23,6.85a101.15,101.15,0,0,0-7.91,7.38c-3.16,3.16-5.8,4.74-9.49,4.22s-10.54-1.06-13.18,1.05-3.16,2.64-9.49,9-14.76,9-16.35,10.55S22.07,330,19.44,329.44a146.05,146.05,0,0,0-20.56-2.11H-23.27s43.23-15.82,48-18.45,22.67-9.49,30-7.9,1.54-2.18,4.71-2.71,2.75,0.92,5.39-1.18,8.89-4.55,8.89-4.55,11.6-4.22,13.18-4.74a80.94,80.94,0,0,1,7.91-2.11c2.64-.53,7.91-2.64,10-3.16S117.52,278.34,117.52,278.34Z" transform="translate(77.57)"/><rect class="cls-1" x="81.19" y="158.62" width="539.35" height="257.81"/></g><text class="cls-5" transform="translate(204.02 177.34)">SUMMIT</text><text class="cls-6" transform="translate(172.41 427.85)">SPO<tspan x="111.21" y="0">R</tspan><tspan x="143.93" y="0">T</tspan><tspan x="170.48" y="0">S</tspan><tspan class="cls-7" x="202.63" y="0">G</tspan><tspan class="cls-7" x="249.08" y="0">R</tspan><tspan class="cls-7" x="281.34" y="0">OUP</tspan></text><rect class="cls-3" x="175.13" y="434.33" width="395.8" height="1.91"/></svg>