<svg id="Layer_1" data-name="Layer 1" xmlns="http://www.w3.org/2000/svg" xmlns:xlink="http://www.w3.org/1999/xlink" viewBox="0 0 865.15 780.63"><defs><style>.cls-1{fill:none;}.cls-2,.cls-5{fill:#03354e;}.cls-3{fill:#fff;}.cls-4{clip-path:url(#clip-path);}.cls-5{font-size:109px;font-weight:700;}.cls-5,.cls-6{font-family:Futura;}.cls-6{font-size:64px;fill:#bcbec0;}.cls-7,.cls-8{fill:#00afec;}.cls-8{letter-spacing:-1px;}</style><clipPath id="clip-path" transform="translate(41.17 -74.91)"><circle class="cls-1" cx="388.95" cy="415.01" r="291.85"/></clipPath></defs><title>old-logo</title><circle class="cls-2" cx="430.12" cy="340.1" r="340.1"/><circle class="cls-3" cx="432.84" cy="340.1" r="321.09"/><circle class="cls-2" cx="430.12" cy="340.1" r="309.4"/><circle class="cls-3" cx="430.12" cy="340.1" r="301.4"/><g class="cls-4"><path class="cls-2" d="M28,456.73c12.33-3.4,24.56-7.18,36.71-11.17,10.08-3.3,20.09-6.83,29.94-10.75,8.84-3.52,17.12-7.91,25.64-12.1,19.49-9.57,40.31-16.5,60.92-23.23,14.54-4.74,30.09-8.37,43.44-15.94,8-4.53,14.63-12.15,21.31-18.33,7.18-6.65,14.46-14,23-18.91a204.09,204.09,0,0,0,17.31-11c3.8-2.73,7.18-6.19,11.33-8.38,8.38-4.4,17.65-7.12,26.49-10.43a47.33,47.33,0,0,0,7.8-4.06c5.1-3.07,11-4.23,16.81-5.14,12.26-1.93,24.53-.66,36.84-1,6.12-.16,12.23-0.54,18.34-0.08s11.12,4.11,16.67,6.59c9.82,4.38,20.74,2.36,31.16,1.77a106.3,106.3,0,0,1,13.76-.25c7,0.52,14.09,6,18.17,11.46,2.27,3,3.92,6,7.1,8.11,4.32,2.92,8.78,5.63,13.2,8.41,4.67,2.94,9,5.39,12.33,9.9,3.19,4.32,5.71,9.1,9.66,12.81,3.46,3.25,8.79,5.23,12.85,7.69,4.79,2.9,9.78,5.74,15.41,6.48,10.58,1.4,21.06,7.44,29.86,13.27,7.92,5.26,15.52,11,23.53,16.13,6.09,3.89,13.23,6.27,19.77,9.29s12.87,6,19.15,9.35c15.8,8.39,32.13,16.75,46.61,27.3,11.29,8.22,21.79,17.47,33.92,24.52,6.77,3.94,14.57,5,21.86,7.76,0.8,0.3,3.81,2.07,1.8.52l0.9,0.7,4.83,3.75,24.22,18.78,1.11-3.42-112.68,8L482.51,528.44,432.56,532l-3.17.23c1.34-.1-1-0.06-1.5-0.08l-19.37-.64-177.76-5.9c-32.81-1.09-65.62-1.9-98.4-3.76l-92.61-5.21-38.5-2.14c-6.77-.37-11.43-0.32-17.13-2.73-7.27-3.08-14.44-6.4-21.6-9.73l0.48,3.37,65.47-48.94c2.43-1.81-1.35-4.91-3.46-3.33l-65.47,48.94a2,2,0,0,0,.48,3.37q7.9,3.67,15.85,7.23c4,1.79,9.27,5.25,13.78,5.43,7,0.29,14,.75,21.06,1.14q46.35,2.57,92.7,5.2c32.62,1.84,65.13,3.33,97.78,4.41L385.24,535l44.55,1.48c9.71,0.32,19.87-1.37,29.55-2.05L634.63,521.9,778.1,511.69l4.91-.35a1.94,1.94,0,0,0,1.11-3.42l-28.74-22.29c-5.75-4.46-13.85-5.37-20.62-7.45-8.09-2.48-15.71-9.2-22.39-14.14-6.28-4.65-12.25-9.71-18.62-14.23-9.42-6.69-19.73-12.28-29.82-17.87-15-8.3-30.16-15.9-45.85-22.77-15.51-6.79-28-19-43-26.73A89.61,89.61,0,0,0,559.45,376c-2.33-.68-4.71-0.81-7.05-1.32-3.51-.77-6.76-2.8-9.82-4.58-4.45-2.59-10.25-5-14-8.49-4.09-3.84-6.41-9.36-10-13.63-6.25-7.39-16.64-11.77-24.66-17-3.67-2.4-5.28-6.41-8.17-9.6a40.94,40.94,0,0,0-13.79-9.75c-8.64-3.75-20.74-1.26-29.78-.73-5.34.31-11,1.1-16.2-.37-5.94-1.67-10.89-5.76-16.79-7.6-10.12-3.16-22.28-.54-32.71-0.83-12.69-.36-25.75-0.6-38.09,2.85-7.17,2-13.13,6.38-20.1,8.91-8.75,3.18-18,6-26,10.8-3.79,2.26-7.1,5.63-10.69,8.21-5.64,4-11.65,7.39-17.56,11-8.67,5.31-16.12,13-23.53,19.88-6.85,6.36-13.54,13.62-22,17.89-8.85,4.48-18.58,7-28,10.07-11.8,3.79-23.59,7.72-35.27,11.88-9.32,3.32-18.56,6.86-27.65,10.77-8.1,3.48-15.73,7.8-23.7,11.54C79,437.56,52,445.54,25.51,452.84,22.48,453.68,25.43,457.43,28,456.73Z" transform="translate(41.17 -74.91)"/><path class="cls-2" d="M344.29,314.67s-13.46,10.41-17.13,15.3-5.51,10.4-5.51,12.85,2.45,3.06,8.57.61,16.52-7.34,16.52-7.34l6.73-4.89s-6.12,8.57-11.62,13.46-10.4,10.4-11.62,12.85-3.67,9.79-5.51,10.4-6.12-7.34-13.46-1.22-1.84,6.73-9.18,14.68-8.56,15.29-14.07,15.91-18.36,3.67-26.92,8-9.79,11.62-14.07,14.07-24.47,3.67-27.53,8S199.89,440.1,187,441.32s-30,8.57-31.82,10.4-39.16,19.58-39.16,19.58-9.18,4.9-17.13,4.9S87.31,448,83,449.27s10.4-3.06,14.68,1.23c8.57,8.56,28.76-1.84,34.87-3.67s11-1.22,14.07-4.89,6.12-8,11.62-9.79,15.91-7.34,15.91-7.34S184,423,187,423s14.07-4.89,16.52-6.12,4.9-7.34-3.67-5.51-11.63-4.89-4.9-6.12,16.52-4.9,17.75-8,8-8,11.62-10.4,12.24,2.45,9.18,6.12,11-3.06,15.91-7.34,26.31-23.86,28.75-27.53-3.06-6.73-8-5.51-9.85-4-1.9-8.3,21.48-11.89,26.37-11.89,14.68-3.67,19.58-6.73,15.29-11,15.29-11,6.12-4.89,11.63-6.12,10.38-2,10.38-2Z" transform="translate(41.17 -74.91)"/><path class="cls-2" d="M479.36,319.55s-4.13,4.3-9.64,4.91-12.23,4.28-12.85,7.34-3.67,8.57,0,11,6.12,5.51,6.12,7.34,9.79,7.34,13.46,9.18,2.45,2.44,9.79,4.89,11.62,4.89,13.46,5.51,0.62-3.67,3.06-4.89,4.9,1.22,7.34,2.45a50.08,50.08,0,0,0,6.73,2.45s3.67-3.67,9.18-.61,6.73,7.34,10.4,9.18-13.46,1.22-13.46,1.22-0.62,2.45,4.28,4.89,8.56,4.28,9.18,9.18,4.28,9.18,4.28,9.18-3.67,3.06-5.51,4.29-6.73,3.67-3.06,4.89,12.24,3.67,17.74,6.73,7.35,6.12,8,9.18,3.06,12.85,9.18,18.36,14.69,13.46,15.91,15.29,2.45-4.28-1.22-9.18-4.29-9.79-8-12.85-4.89-7.34-6.73-11.62,6.12-6.73,10.4-2.45,8,9.18,11.63,9.79S604.93,437,604.93,437s-3.67-3.06-8.56-8-5.51-7.34-9.18-10.4-15.3-8.57-19.58-10.4-12.24-4.89-16.52-9.18-3.06-7.34,1.84-6.12,17.14,5.51,23.25,9.18,4.89,9.18,19.58,16.52S616,432.75,618.4,434s8.67,1.66,12.23,2.45,46.56,31.46,30.31,29.21,37.61,24,37.61,24,23.25-28.14-36.71-56.29c-15.76-7.4-40.23-6.37-41.6-7.34s-0.62-6.12-4.29-9.79a31.68,31.68,0,0,0-10.4-6.73c-1.84-.61-26.92-13.46-28.76-15.91s1.23-6.12-8.56-8.56-16.52-7.34-18.36-8-10.4-6.73-15.3-8.57-11.62-2.45-15.91-4.28-2.45-2.45-6.12-7.34-9.18-12.24-11.62-14.07-2-4-5-5.81-5.57-4.64-8-7.7S479.36,319.55,479.36,319.55Z" transform="translate(41.17 -74.91)"/><path class="cls-2" d="M400,342.81s-2.45-8.57.61-6.12,6.12,8,6.73,9.79,7.34,14.68,9.79,16.52,4.89,3.67,5.51,5.51-3.05,1.22-.61,4.89,7.34,7.34,8,9.18,2.45,7.34,8,10.4,7.34,10.4,7.34,10.4l3.06,5.51a69.89,69.89,0,0,0-6.73-4.29c-2.45-1.22-8.57-9.79-11.62-9.79s-3.06,1.22-3.06,3.67a24.92,24.92,0,0,1-1.22,6.12s-0.61-6.73-4.29-11-5.5-2.45-6.73-6.73,0.61-5.51-.61-9.18-1.83-5.51-4.89-7.34-6.12-6.73-6.12-6.73,0.61,11-1.22,13.46-3.67-2.45-3.67-5.51-0.62-9.18-.62-11.62,4.29-1.83,3.67-5.51S400,342.81,400,342.81Z" transform="translate(41.17 -74.91)"/><path class="cls-2" d="M434.84,344.65s7.34,2.45,8.57,8a96.53,96.53,0,0,1,1.83,16.52,34.26,34.26,0,0,0,3.67,13.46,75,75,0,0,0,6.12,9.79s-0.62-3.06-1.22-9.18,4.29-9.79,4.9-6.12,0,11.63,3.06,14.07,6.73,8.57,7.34,10.4,9.18,12.24,12.85,12.85,9.18,5.51,11,8S496,432.76,496,435.2s1.22,4.28,3.67,6.73,5.51,0,5.51-2.45,0.62-12.23,4.9-8.56,2.45,2.45,11,6.12,8,2.44,13.46,7.95,11.63,11,11.63,11,4.28,4.9,1.22,6.13-4.89,3.67-6.73,5.51-2.45,6.12-4.28,6.72-14.69-3.67-15.91-5.51-6.12-1.22-8.56,0-9.18-1.83-10.4-4.28-3.05-6.12-8-8.57-13.46-5.51-15.3-5.51-3.67,1.22-.61,4.9,2.45,6.73-1.22,7.95-9.79,5.51-11.63,8-9.79,19-9.79,20.8-3.06,7.34-3.06,7.34-3.05,0-11.62-4.9-15.29-11-18.36-11-22-2.44-26.31-1.22-16.52,9.79-25.08,9.18-6.12-4.9-8.57-8-7.34-4.89-12.85-4.28-44.05,8.57-48.34,5.51-1.22,1.23-9.18-9.18-12.85-17.13-20.19-17.75-14.68,2.45-9.79,4.29,5.51,10.4,3.67,11-10.4,4.28-14.68-1.23-12.85-15.3-14.07-10.4,4.89,12.85.61,17.13-7.34,14.07-15.91,8-10.4-11.63-13.46-12.24-13.46,1.23-15.29,2.45-12.85,15.9-17.75,15.9-15.29,6.12-18.36.62,6.12-8,9.18-9.18,10.4-5.51,11-8,1.22-5.51-.61-7.34-3.67-1.22-6.73,1.84-3.06,5.51-8,5.51-6.73-3.67-11-4.28-9.79,1.84-12.24,4.28-23.86,5.51-30,6.13,3.06-7.34,4.89-8.57,19.58-15.91,19.58-15.91l-8,.62s-6.73,6.12-23.86,9.79-22.64.61-28.76,6.12-11,9.79-14.07,11S50,497,50,497l-7.34,16.52s-3.06,19.58,3.06,20.8,78.93,310.21,94.83,309,359.76,12.23,359.76,12.23S680.8,728.28,683.86,728.28s-16.52-156.63-14.69-156.63,9.79-34.87,23.25-36.71,110.13-10.4,112-10.4S824,518.41,824,518.41s-47.11-20.8-56.9-23.87-12.85-2.44-22-2.44-11,3.06-17.13-1.84-2.45-3.67-1.83-8-12.24-5.51-15.91-4.9-8,3.06-13.46,0-9.18-8-19-9.79-9.79-1.23-14.07-1.84-8,0-15.3-3.06-13.46-7.34-15.91-8.57-11-.61-9.18,3.67,3.06,8,.61,11-6.12,4.29-1.23,8.57,8,6.12,8.57,8,1.23,6.73-1.84,8.57-23.86,10.4-27.53,6.73-13.47-6.73-17.75-6.73-11.62-1.22-11.62-4.28-11.62-7.34-7.34-11,8-1.22,11.62,2.45,9.18,3.06,7.34-.61-8.56-8.57-10.4-11-4.9-14.69-9.79-17.14-13.46-11-13.46-11-15.3-6.73-17.13-6.73-9.18-1.83-11-3.06-8.57,1.23-8.57-2.45a7.92,7.92,0,0,0-7.34-8c-4.9-.61-7.34-4.89-4.28-4.89s4.28-4.28,1.22-6.12-9.79-3.67-9.79-3.67-13.46-5.51-15.91-12.85,1.22-11.62-1.83-13.46-9.18-4.89-9.18-6.73,0.62-4.28,2.45-4.28,2.45-6.73-1.83-6.12-3.67,4.28-6.73,2.45-6.12-8.57-6.12-8.57-11-12.85-14.69-14.07S434.84,344.65,434.84,344.65Z" transform="translate(41.17 -74.91)"/><path class="cls-2" d="M384.06,344.65c-3.06,3.06-3.06,6.12-3.67,8.56s0.61,7.34-1.84,8-2.44,2.45-4.89,2.45-6.12-6.12-6.12-6.12-3.67-1.22-3.06-6.73-4.28,0-6.12-1.22-6.12-8.56-4.28-10.4,4.89-3.67,6.73-3.67,6.73,3.67,6.73,3.67,4.89-1.23,5.5,1.22,1.23,7.34,1.23,7.34a2.47,2.47,0,0,0,3.06-1.84c0.61-2.45,3.67-6.12,3.67-6.12s-1.83-4.28.61-4.9,6.73,0,4.89,2.45S384.06,344.65,384.06,344.65Z" transform="translate(41.17 -74.91)"/><path class="cls-2" d="M380.39,324.46s-1.22,4.28,3.06,4.89,5.51-4.28,3.67-4.89S382.83,320.79,380.39,324.46Z" transform="translate(41.17 -74.91)"/><path class="cls-2" d="M384.06,406.44s1.83-8,1.83-10.4,0-6.73-.61-8.57,0-6.73-1.84-8-6.73-6.12-4.28-8,6.73-1.22,7.34,1.22,5.51,11,5.51,12.85,0.61,8.57,1.84,10.4,1.22,8,3.67,10.4,9.18,4.89,9.18,4.89,5.51,4.89,1.83,6.12a18,18,0,0,0-9.18,8.57c-1.22,3.06-3.67,8-4.89,6.12S393.85,426,396.3,423s9.78-7.34,6.11-8.56-7.34.61-9.18-2.45-0.61-8.56-4.28-4.28S385.28,410.12,384.06,406.44Z" transform="translate(41.17 -74.91)"/><path class="cls-2" d="M359.59,443.15s0,8-5.51,4.9-8.56-12.85-12.85-11-5.51,6.12-11,4.9-15.3-4.29-11.63-7.34,9.18,1.84,9.18-3.67-4.89-8.57-1.22-12.24,4.28,1.83,9.79-1.22,8.56-7.34,6.12-8.56-10.4,1.83-10.4-3.06-3.06-10.4,0-15.3,1.22-11.63.61-14.07-1.83-9.79,1.22-9.79,1.83,5.51,4.89,6.12,6.73,4.9,5.51,8.57-4.89,6.12-4.28,8.56,8.57,11,8.57,11a6,6,0,0,1,.61,5.51c-1.22,3.06-4.28,4.28-2.45,7.34s7.34,8,6.73,11.63-3.67,8.57-.61,11A63.5,63.5,0,0,1,359.59,443.15Z" transform="translate(41.17 -74.91)"/><path class="cls-2" d="M356.53,311s-4.9,4.89-9.18,8.57-9.17,5.5-6.12,8,16.52,0,17.13-3.06-6.12,0-5.51-3.06S359,313.44,356.53,311Z" transform="translate(41.17 -74.91)"/><path class="cls-2" d="M325.93,377.07s3.67,6.73,1.83,10.4-4.28,4.89-3.67,9.18,0.61,14.07-5.51,12.85-4.28-6.12-3.67-8.57,1.84-5.51-.61-5.51-6.12,2.45-8,1.84,0.61-6.73,3.06-8,3.06,1.22,5.51-3.06,3.67-12.24,5.51-14.07,6.12-3.06,4.89-.61S325.93,377.07,325.93,377.07Z" transform="translate(41.17 -74.91)"/><path class="cls-2" d="M281.88,407.67c3.67,3.06,2.45,5.51-.61,8s-5.51,3.06-3.06,5.51,6.73,6.73,9.18,8,4.89,3.06,3.67,4.89-2.44,1.84-4.89,6.73c0,0-1.22,8-7.34,8s-13.46-3.06-15.91-1.84-10.4,3.67-10.4,3.67a24.69,24.69,0,0,1,3.67-6.72c2.45-3.06,4.28-6.73,0-6.73s-6.12.61-9.79,1.84-14.69,9.79-15.91,6.11-1.22-7.34,0-9.18,6.12-7.34,9.79-7.34,13.46-.61,16.52-4.28a21.59,21.59,0,0,1,8-5.51,4.87,4.87,0,0,1,.61-4.9c1.84-2.45,4.89-6.73,7.34-6.73S278.21,404.61,281.88,407.67Z" transform="translate(41.17 -74.91)"/><path class="cls-2" d="M448.91,418.07s4.28,6.12,0,6.73-11.62-2.45-8.56,1.23,8,14.68,6.11,18.36S441,449.27,441,445s-0.61-9.79-3.06-11-4.89-2.45-6.73-2.45-11,.61-9.18-1.84,6.12-4.9,8.56-4.9,5.51-3.67,5.51-3.67a4.59,4.59,0,0,1,3.67-1.84A85.06,85.06,0,0,0,448.91,418.07Z" transform="translate(41.17 -74.91)"/><path class="cls-2" d="M185.23,397.92s-0.63,10.36-10.43,11.58-12.85,4.89-16.52,8a117.38,117.38,0,0,0-9.18,8.57c-3.67,3.67-6.73,5.51-11,4.9s-12.23-1.23-15.29,1.22-3.67,3.06-11,10.4-17.13,10.4-19,12.24-18.35,3.05-21.41,2.45a169.5,169.5,0,0,0-23.86-2.45H21.85S72,436.43,77.52,433.37s26.31-11,34.87-9.17,1.79-2.53,5.46-3.14,3.19,1.07,6.25-1.37,10.32-5.28,10.32-5.28,13.46-4.89,15.29-5.51a93.94,93.94,0,0,1,9.18-2.45c3.06-.61,9.18-3.06,11.62-3.67S185.23,397.92,185.23,397.92Z" transform="translate(41.17 -74.91)"/><rect class="cls-1" x="94.22" y="184.08" width="625.92" height="299.19"/></g><text class="cls-5" transform="translate(236.77 205.8)">SUMMIT</text><text class="cls-6" transform="translate(200.07 496.53)">SPO<tspan x="129.06" y="0">R</tspan><tspan x="167.03" y="0">T</tspan><tspan x="197.84" y="0">S</tspan><tspan class="cls-7" x="235.16" y="0">G</tspan><tspan class="cls-8" x="289.06" y="0">R</tspan><tspan class="cls-7" x="326.5" y="0">OUP</tspan></text><rect class="cls-3" x="203.24" y="504.04" width="459.33" height="2.21"/></svg>