<svg id="summit-logo" data-name="summit-logo" xmlns="http://www.w3.org/2000/svg" viewBox="0 0 99.38 83.52">
	<defs>
		<style>
			.cls-1{fill:#b3b3b3;}
			.cls-2,.cls-4{fill:#183f67;}
			.cls-3{fill:#54a5d9;}
			.cls-4{font-size:9.6px;letter-spacing:5.16px;}
			.cls-4,.cls-5{font-family:Futura;}
			.cls-5{font-size:4.8px;fill:#bbbdbf;letter-spacing:2.06px;}
		</style>
	</defs>
	<title>summit-logo</title>
	<polygon class="cls-1" points="14.13 0 11.51 11.45 14.9 15.14 22.35 7.04 25.79 10.78 28.26 0 14.13 0"/>
	<polygon class="cls-1" points="35.07 0 33.11 11.54 37.25 7.04 44.7 15.14 47.07 12.56 49.2 0 35.07 0"/>
	<polygon class="cls-2" points="49.2 0 43.19 35.4 49.2 61.63 56.27 30.82 49.2 0"/>
	<polyline class="cls-2" points="99.39 61.63 88.19 12.79 83.42 40.84 88.19 61.63 89.81 61.63 96.86 61.63 99.39 61.63"/>
	<polygon class="cls-2" points="71.59 12.79 65.16 40.84 68.69 61.63 74.29 28.68 71.59 12.79"/>
	<polygon class="cls-2" points="28.26 0 20.14 35.4 24.6 61.63 31.67 20.05 28.26 0"/>
	<polygon class="cls-3" points="57.71 24.47 54.79 37.21 49.19 61.63 60.39 61.63 65.16 40.84 68.92 24.45 63.33 18.37 57.71 24.47"/>
	<polygon class="cls-3" points="14.9 15.14 11.51 11.45 10 18.01 0.01 61.61 0 61.63 14.13 61.63 20.14 35.4 25.79 10.78 22.35 7.04 14.9 15.14"/>
	<polygon class="cls-3" points="37.25 7.04 33.11 11.54 31.67 20.05 24.6 61.63 38.73 61.63 43.19 35.4 47.07 12.56 44.7 15.14 37.25 7.04"/>
	<polygon class="cls-3" points="81.03 24.79 75.9 19.2 74.29 28.68 68.69 61.63 79.89 61.63 83.42 40.84 87.19 18.63 86.93 18.37 81.03 24.79"/>
	<polygon class="cls-1" points="60.39 12.79 57.71 24.47 63.33 18.37 68.92 24.45 71.59 12.79 60.39 12.79"/>
	<polygon class="cls-1" points="78.61 12.79 76.99 12.79 75.9 19.2 81.03 24.79 86.93 18.37 87.19 18.63 88.19 12.79 78.61 12.79"/>
	<text class="cls-4" transform="translate(16.61 75.33) scale(0.97 1)">
		SUMMIT
	</text>
	<text class="cls-5" transform="translate(16.72 81.37) scale(0.97 1)">
		SPO
		<tspan x="18.32" y="0">R</tspan>
		<tspan x="24.04" y="0">TS G</tspan>
		<tspan x="46.19" y="0">R</tspan>
		<tspan x="51.88" y="0">OUP</tspan>
	</text>
</svg>