<svg id="Layer_1" data-name="Layer 1" xmlns="http://www.w3.org/2000/svg" viewBox="0 0 457.12 189.48"><defs><style>.cls-1{fill:#b3b3b3;}.cls-2{fill:#183f67;}.cls-3{fill:#54a5d9;}.cls-4{font-size:18px;fill:#bbbdbf;font-family:Futura;letter-spacing:10.32px;}</style></defs><title>summit-text</title><polygon class="cls-1" points="154.62 0 148.05 28.63 156.54 37.85 175.17 17.61 183.77 26.95 189.95 0 154.62 0"/><polygon class="cls-1" points="206.98 0 202.08 28.84 212.42 17.61 231.04 37.85 236.98 31.4 242.31 0 206.98 0"/><polygon class="cls-2" points="242.31 0 227.28 88.52 242.31 154.11 259.98 77.06 242.31 0"/><polyline class="cls-2" points="367.79 154.11 339.79 31.98 327.87 102.13 339.79 154.11 343.84 154.11 361.47 154.11 367.79 154.11"/><polygon class="cls-2" points="298.29 31.98 282.21 102.13 291.04 154.11 305.04 71.71 298.29 31.98"/><polygon class="cls-2" points="189.95 0 169.65 88.52 180.8 154.11 198.46 50.13 189.95 0"/><polygon class="cls-3" points="263.59 61.2 256.29 93.05 242.29 154.11 270.29 154.11 282.21 102.13 291.61 61.13 277.63 45.93 263.59 61.2"/><polygon class="cls-3" points="156.54 37.85 148.05 28.63 144.29 45.03 119.3 154.06 119.28 154.11 154.62 154.11 169.65 88.52 183.77 26.95 175.17 17.61 156.54 37.85"/><polygon class="cls-3" points="212.42 17.61 202.08 28.84 198.46 50.13 180.8 154.11 216.13 154.11 227.28 88.52 236.98 31.4 231.04 37.85 212.42 17.61"/><polygon class="cls-3" points="321.9 61.98 309.07 48.02 305.04 71.71 291.04 154.11 319.04 154.11 327.87 102.13 337.31 46.58 336.66 45.93 321.9 61.98"/><polygon class="cls-1" points="270.29 31.98 263.59 61.2 277.63 45.93 291.61 61.13 298.29 31.98 270.29 31.98"/><polygon class="cls-1" points="315.84 31.98 311.79 31.98 309.07 48.02 321.9 61.98 336.66 45.93 337.31 46.58 339.79 31.98 315.84 31.98"/><path class="cls-2" d="M129.71,746.77c-0.16-.31-0.31-0.62-0.48-0.93q-4.37-7.91-14.49-15.42l-5.06-3.88q-6.52-4.82-6.52-9.73a6.59,6.59,0,0,1,2.45-5.14,8.53,8.53,0,0,1,6.06-2.21,16.77,16.77,0,0,1,9.81,3.6,32.06,32.06,0,0,1,8.22,8.15V687.47h0.52c-7.67-4.14-15.28-8.15-22.84-8.15a32,32,0,0,0-21.84,7.91,33.25,33.25,0,0,0-5.83,6.37,46.1,46.1,0,0,0-4.45,8,47,47,0,0,0-3.83,17.88,40.83,40.83,0,0,0,1.07,9.49,35.42,35.42,0,0,0,3.37,8.74,41.3,41.3,0,0,0,6,8.23,71.79,71.79,0,0,0,8.89,8L96,758.1q5.67,4.67,5.67,9.57A7.17,7.17,0,0,1,99,773.33a9.94,9.94,0,0,1-6.75,2.25q-11,0-20.39-13.29v38.36Q84.78,805.8,96,805.8q16.33,0,27-11.71a39.22,39.22,0,0,0,8.15-13.76,57.52,57.52,0,0,1-1.46-13.42V746.77Z" transform="translate(-71.44 -651.06)"/><path class="cls-2" d="M205.49,687.47H174.91v76.72q0,7.87-1.69,11t-6.09,3q-4.25,0-6.05-3.18t-1.8-10.82V687.47H128.71v79.45a57.52,57.52,0,0,0,1.46,13.42q3,12.4,12,19.28,10.63,8,26.33,8a40.72,40.72,0,0,0,17.15-3.5l19.81-86.4V687.47Z" transform="translate(-71.44 -651.06)"/><polyline class="cls-2" points="372.28 153.11 400.16 153.11 400.16 141.69 383.86 71.37 353.53 71.31 372.28 153.11"/><polygon class="cls-2" points="457.12 30.98 344.28 30.98 351.6 62.92 392.62 63.12 399.09 141.69 400.03 153.11 401.56 153.11 433.57 153.11 426.16 63.08 457.12 62.92 457.12 30.98"/><text class="cls-4" transform="translate(104.88 184.28) scale(0.97 1)">SPO<tspan x="68.7" y="0">R</tspan><tspan x="90.18" y="0">T</tspan><tspan x="109.64" y="0">S G</tspan><tspan x="173.25" y="0">R</tspan><tspan x="194.58" y="0">OUP</tspan></text></svg>